<?xml version="1.0" encoding="UTF-8" standalone="no"?>
<svg
   xmlns:dc="http://purl.org/dc/elements/1.1/"
   xmlns:cc="http://creativecommons.org/ns#"
   xmlns:rdf="http://www.w3.org/1999/02/22-rdf-syntax-ns#"
   xmlns:svg="http://www.w3.org/2000/svg"
   xmlns="http://www.w3.org/2000/svg"
   id="svg41"
   version="1.1"
   class="logo-emblem"
   viewBox="0 0 32 32">
  <metadata
     id="metadata45">
    <rdf:RDF>
      <cc:Work
         rdf:about="">
        <dc:format>image/svg+xml</dc:format>
        <dc:type
           rdf:resource="http://purl.org/dc/dcmitype/StillImage" />
        <dc:title></dc:title>
      </cc:Work>
    </rdf:RDF>
  </metadata>
  <defs
     id="defs37">
    <linearGradient
       gradientTransform="matrix(1.0322583,0,0,1.0322579,-0.5161294,-0.51612924)"
       gradientUnits="userSpaceOnUse"
       y2="0.50000681"
       x2="31.499993"
       y1="31.5"
       x1="0.49999964"
       id="logo-gradient-standard">
      <stop
         id="stop2"
         style="stop-color:#7f41ef;stop-opacity:1"
         offset="0%" />
      <stop
         id="stop4"
         style="stop-color:#4f29d0;stop-opacity:1"
         offset="100%" />
    </linearGradient>
    <linearGradient
       y2="0"
       x2="1"
       y1="1"
       x1="0"
       id="logo-gradient-white">
      <stop
         id="stop7"
         style="stop-color:#fff;stop-opacity:1"
         offset="0%" />
      <stop
         id="stop9"
         style="stop-color:#fff;stop-opacity:1"
         offset="100%" />
    </linearGradient>
    <linearGradient
       y2="0.1"
       x2="0.9"
       y1="0.9"
       x1="0.1"
       id="logo-pride">
      <stop
         id="stop12"
         style="stop-color:#7f41ef;stop-opacity:1"
         offset="0%" />
      <stop
         id="stop14"
         style="stop-color:#7f41ef;stop-opacity:1"
         offset="16.6%" />
      <stop
         id="stop16"
         style="stop-color:#41a5ef;stop-opacity:1"
         offset="16.6%" />
      <stop
         id="stop18"
         style="stop-color:#41a5ef;stop-opacity:1"
         offset="33.3%" />
      <stop
         id="stop20"
         style="stop-color:#63ac56;stop-opacity:1"
         offset="33.3%" />
      <stop
         id="stop22"
         style="stop-color:#63ac56;stop-opacity:1"
         offset="50%" />
      <stop
         id="stop24"
         style="stop-color:#f8dd56;stop-opacity:1"
         offset="50%" />
      <stop
         id="stop26"
         style="stop-color:#f8dd56;stop-opacity:1"
         offset="66.6%" />
      <stop
         id="stop28"
         style="stop-color:#f7a207;stop-opacity:1"
         offset="66.6%" />
      <stop
         id="stop30"
         style="stop-color:#f7a207;stop-opacity:1"
         offset="83.3%" />
      <stop
         id="stop32"
         style="stop-color:#d92929;stop-opacity:1"
         offset="83.3%" />
      <stop
         id="stop34"
         style="stop-color:#d92929;stop-opacity:1"
         offset="100%" />
    </linearGradient>
  </defs>
  <path
     id="path39"
     style="fill:url(#logo-gradient-standard);stroke-width:1"
     d="M 15.999999,6.735e-6 A 16,16 0 0 0 -6.15e-7,16 16,16 0 0 0 15.999999,31.999993 16,16 0 0 0 32.000001,16 16,16 0 0 0 15.999999,6.735e-6 Z m -1.816534,3.149209965 3.907261,2.479838 0.657257,4.141114 -1.350806,0.9092713 -1.08468,9.53428 -2.455646,1.100794 -1.633062,-2.062501 -1.122981,-12.5725706 z m 8.191535,4.9213648 3.006047,4.1330375 -3.679434,13.096809 -3.870969,-5.766145 -0.887096,0.399196 1.012094,-8.915315 3.336694,-2.2439572 z m -11.39113,10.5746005 2.467743,3.110859 -0.439517,5.629047 -2.379032,-0.407272 -2.7217751,-7.330625 z m 6.633064,1.637086 3.552421,5.292353 -4.881051,2.372978 -2.691529,-0.461697 0.437499,-5.596784 z" />
</svg>
