<?xml version="1.0" encoding="UTF-8" standalone="no"?>
<svg
   xmlns:dc="http://purl.org/dc/elements/1.1/"
   xmlns:cc="http://creativecommons.org/ns#"
   xmlns:rdf="http://www.w3.org/1999/02/22-rdf-syntax-ns#"
   xmlns:svg="http://www.w3.org/2000/svg"
   xmlns="http://www.w3.org/2000/svg"
   xmlns:xlink="http://www.w3.org/1999/xlink"
   id="svg8"
   version="1.1"
   viewBox="0 0 137.69 35"
   height="35"
   width="137.69">
  <defs
     id="defs2">
    <linearGradient
       xlink:href="#logo-gradient-white"
       gradientTransform="matrix(1.0584678,0,0,1.0584674,0.56476881,0.56429)"
       gradientUnits="userSpaceOnUse"
       id="logo-gradient-standard"
       x1="-0.62580216"
       y1="20.019548"
       x2="19.891926"
       y2="-0.4981868">
      <stop
         offset="0%"
         style="stop-color:#7f41ef;stop-opacity:1"
         id="stop1419" />
      <stop
         offset="100%"
         style="stop-color:#4f29d0;stop-opacity:1"
         id="stop1421" />
    </linearGradient>
    <linearGradient
       id="logo-gradient-white"
       x1="0"
       y1="1"
       x2="1"
       y2="0">
      <stop
         offset="0%"
         style="stop-color:#fff;stop-opacity:1"
         id="stop1424" />
      <stop
         offset="100%"
         style="stop-color:#fff;stop-opacity:1"
         id="stop1426" />
    </linearGradient>
    <linearGradient
       id="logo-pride"
       x1="0.1"
       y1="0.89999998"
       x2="0.89999998"
       y2="0.1">
      <stop
         offset="0%"
         style="stop-color:#7f41ef;stop-opacity:1"
         id="stop1429" />
      <stop
         offset="16.6%"
         style="stop-color:#7f41ef;stop-opacity:1"
         id="stop1431" />
      <stop
         offset="16.6%"
         style="stop-color:#41a5ef;stop-opacity:1"
         id="stop1433" />
      <stop
         offset="33.3%"
         style="stop-color:#41a5ef;stop-opacity:1"
         id="stop1435" />
      <stop
         offset="33.3%"
         style="stop-color:#63ac56;stop-opacity:1"
         id="stop1437" />
      <stop
         offset="50%"
         style="stop-color:#63ac56;stop-opacity:1"
         id="stop1439" />
      <stop
         offset="50%"
         style="stop-color:#f8dd56;stop-opacity:1"
         id="stop1441" />
      <stop
         offset="66.6%"
         style="stop-color:#f8dd56;stop-opacity:1"
         id="stop1443" />
      <stop
         offset="66.6%"
         style="stop-color:#f7a207;stop-opacity:1"
         id="stop1445" />
      <stop
         offset="83.3%"
         style="stop-color:#f7a207;stop-opacity:1"
         id="stop1447" />
      <stop
         offset="83.3%"
         style="stop-color:#d92929;stop-opacity:1"
         id="stop1449" />
      <stop
         offset="100%"
         style="stop-color:#d92929;stop-opacity:1"
         id="stop1451" />
    </linearGradient>
  </defs>
  <metadata
     id="metadata5">
    <rdf:RDF>
      <cc:Work
         rdf:about="">
        <dc:format>image/svg+xml</dc:format>
        <dc:type
           rdf:resource="http://purl.org/dc/dcmitype/StillImage" />
        <dc:title></dc:title>
      </cc:Work>
    </rdf:RDF>
  </metadata>
  <g
     style="fill:#ffffff;fill-opacity:0.80000001;stroke-width:0.42332909"
     transform="matrix(0.62500625,0,0,0.62500625,45.000938,9.4998)"
     id="g1516">
    <path
       style="fill:#ffffff;fill-opacity:0.80000001;stroke-width:0.42332909"
       d="M 141.53041,24.944 V 0.74797 h 2.67261 v 6.37861 h 4.098 V 9.4785 h -4.098 V 24.944 Z"
       id="path1484" />
    <path
       style="fill:#ffffff;fill-opacity:0.80000001;stroke-width:0.42332909"
       d="m 134.41814,11.90192 q -0.35636,-2.77956 -4.48998,-2.77956 -4.098,0 -4.098,2.56571 0,1.06906 0.85523,1.6392 0.89087,0.53465 2.20936,0.89086 1.31848,0.35642 2.85078,0.67678 1.56793,0.28499 2.88641,0.85528 1.31849,0.53464 2.17373,1.49663 0.89087,0.96214 0.89087,2.63699 0,2.60135 -1.95992,3.99106 -1.95991,1.35413 -5.30958,1.35413 -3.56348,0 -5.66592,-1.7817 -1.92428,-1.568 -2.06682,-4.09806 h 2.77951 q 0.24943,2.45885 2.77951,3.31406 0.9265,0.285 1.81737,0.285 0.92651,0 1.71047,-0.10679 0.78397,-0.10678 1.5323,-0.39178 1.71047,-0.67678 1.71047,-2.31627 0,-1.10471 -0.89087,-1.67485 -0.85523,-0.60607 -2.17372,-0.96214 -1.31849,-0.39178 -2.88642,-0.67678 -1.5323,-0.32107 -2.85078,-0.85521 -1.31848,-0.53464 -2.20936,-1.46107 -0.85523,-0.92649 -0.85523,-2.5657 0,-2.42313 1.74611,-3.74163 1.78173,-1.35413 5.2383,-1.35413 3.2784,0 5.16704,1.56792 1.56793,1.31849 1.81738,3.49227 z"
       id="path1486" />
    <path
       style="fill:#ffffff;fill-opacity:0.80000001;stroke-width:0.42332909"
       d="m 110.96796,32 h -2.88642 l 3.24277,-7.30512 -7.2695,-17.56799 h 2.95769 l 5.73719,14.61029 5.84411,-14.61029 h 2.92205 z"
       id="path1488" />
    <path
       style="fill:#ffffff;fill-opacity:0.80000001;stroke-width:0.42332909"
       d="m 89.169788,3.2e-4 v 9.90646 q 0.962139,-1.28285 2.351895,-2.1737 1.389756,-0.89093 3.171497,-0.89093 1.781732,0 3.064584,0.49929 1.282851,0.49856 2.244986,1.49663 2.20936,2.17371 2.20936,5.73719 V 24.945 H 99.539498 V 14.64655 q 0,-2.45878 -1.38975,-3.91984 -1.389759,-1.46099 -3.59911,-1.46099 -2.24499,0 -3.81292,1.49663 -1.56793,1.53228 -1.56793,3.91984 V 24.945 H 86.497181 V 6.9e-4 Z"
       id="path1490" />
    <path
       style="fill:#ffffff;fill-opacity:0.80000001;stroke-width:0.42332909"
       d="M 76.763598,24.944 V 0.74797 h 2.672607 v 6.37861 h 4.097998 V 9.4785 H 79.436205 V 24.944 Z"
       id="path1492" />
    <path
       style="fill:#ffffff;fill-opacity:0.80000001;stroke-width:0.42332909"
       d="m 64.652036,22.80587 c 1.199704,0 2.230142,-0.24964 3.091316,-0.74835 0.861173,-0.49857 1.553082,-1.24721 2.075725,-2.24499 h 2.922051 c -0.617667,1.61539 -1.603565,2.92205 -2.957686,3.91984 -1.330364,0.99778 -3.052711,1.49663 -5.16704,1.49663 -2.684485,0 -4.870084,-0.89085 -6.556796,-2.67263 -1.639199,-1.73423 -2.458799,-3.90793 -2.458799,-6.52111 0,-2.63699 0.783965,-4.8107 2.351894,-6.52119 1.662956,-1.78178 3.824798,-2.67263 6.485527,-2.67263 2.660729,0 4.822571,0.89085 6.485527,2.67263 1.567929,1.71049 2.351894,3.8842 2.351894,6.52119 v 1.06899 H 58.344684 c 0.190054,1.63921 0.843356,2.99335 1.959912,4.06241 1.140312,1.09281 2.589458,1.63921 4.34744,1.63921 z M 64.43823,9.26464 c -1.639199,0 -3.017076,0.51084 -4.133632,1.53228 -1.045287,0.97398 -1.686712,2.24499 -1.924277,3.81292 H 70.49614 C 70.258574,13.04191 69.617148,11.7709 68.571863,10.79692 67.455306,9.7754 66.077429,9.26464 64.43823,9.26464 Z"
       id="path1494" />
    <path
       style="fill:#ffffff;fill-opacity:0.80000001;stroke-width:0.42332909"
       d="m 28.476073,9.83557 q 1.781738,-2.99335 5.416484,-2.99335 1.781738,0 3.278398,0.96214 1.532295,0.9265 2.387529,2.63699 1.211582,-2.24499 3.777285,-3.20713 1.033408,-0.39178 2.316259,-0.39178 1.318487,0 2.494434,0.53464 1.211582,0.49857 2.138086,1.46099 1.995547,2.13806 1.995547,5.34519 V 24.945 H 49.607487 V 14.25455 q 0,-2.20935 -1.247216,-3.6347 -1.247217,-1.35414 -3.171494,-1.35414 -2.031182,0 -3.385303,1.3185 -1.42539,1.35406 -1.42539,3.70598 V 24.945 H 37.705477 V 14.25455 q 0,-2.20935 -1.247217,-3.6347 -1.247217,-1.35414 -3.171494,-1.35414 -2.031181,0 -3.385303,1.3185 -1.42539,1.35406 -1.42539,3.70598 V 24.945 H 25.803466 V 7.12758 h 2.672607 z"
       id="path1496" />
    <path
       style="fill:#ffffff;fill-opacity:0.80000001;stroke-width:0.42332909"
       d="M 23.376405,24.944 H 20.41872 L 16.958639,16.72957 H 6.4231365 L 2.9576858,24.944 H 4.409953e-7 L 10.013369,1.35375 h 3.349668 z M 15.925231,14.27079 11.688203,4.13331 7.4565448,14.27079 Z"
       id="path1498" />
  </g>
  <path
     d="M 17.500246,1.09352 A 16.406247,16.406247 0 0 0 1.094,17.49976 16.406247,16.406247 0 0 0 17.500246,33.906 16.406247,16.406247 0 0 0 33.9065,17.49976 16.406247,16.406247 0 0 0 17.500246,1.09352 Z m -1.862656,3.22917 4.006468,2.5428 0.673946,4.24626 -1.385104,0.93236 -1.112221,9.77636 -2.517996,1.12874 -1.674524,-2.11487 -1.151494,-12.89179 z m 8.399522,5.04632 3.082375,4.23797 -3.772859,13.42935 -3.969252,-5.91255 -0.909623,0.40933 1.037792,-9.14168 3.421414,-2.30093 z m -11.680354,10.84309 2.530401,3.18985 -0.450677,5.77197 -2.439438,-0.41761 -2.7908825,-7.51676 z m 6.801479,1.67866 3.642618,5.42672 -5.004983,2.43323 -2.759866,-0.47342 0.448605,-5.73889 z"
     style="fill:#ffffff;stroke-width:0.26458332;fill-opacity:1"
     id="path1456" />
</svg>
