<svg viewBox="0 0 148.30099 32" class="logo-text">
  <path d="M 141.53041,24.944 V 0.74797 h 2.67261 v 6.37861 h 4.098 V 9.4785 h -4.098 V 24.944 Z" />
  <path d="m 134.41814,11.90192 q -0.35636,-2.77956 -4.48998,-2.77956 -4.098,0 -4.098,2.56571 0,1.06906 0.85523,1.6392 0.89087,0.53465 2.20936,0.89086 1.31848,0.35642 2.85078,0.67678 1.56793,0.28499 2.88641,0.85528 1.31849,0.53464 2.17373,1.49663 0.89087,0.96214 0.89087,2.63699 0,2.60135 -1.95992,3.99106 -1.95991,1.35413 -5.30958,1.35413 -3.56348,0 -5.66592,-1.7817 -1.92428,-1.568 -2.06682,-4.09806 h 2.77951 q 0.24943,2.45885 2.77951,3.31406 0.9265,0.285 1.81737,0.285 0.92651,0 1.71047,-0.10679 0.78397,-0.10678 1.5323,-0.39178 1.71047,-0.67678 1.71047,-2.31627 0,-1.10471 -0.89087,-1.67485 -0.85523,-0.60607 -2.17372,-0.96214 -1.31849,-0.39178 -2.88642,-0.67678 -1.5323,-0.32107 -2.85078,-0.85521 -1.31848,-0.53464 -2.20936,-1.46107 -0.85523,-0.92649 -0.85523,-2.5657 0,-2.42313 1.74611,-3.74163 1.78173,-1.35413 5.2383,-1.35413 3.2784,0 5.16704,1.56792 1.56793,1.31849 1.81738,3.49227 z" />
  <path d="m 110.96796,32 h -2.88642 l 3.24277,-7.30512 -7.2695,-17.56799 h 2.95769 l 5.73719,14.61029 5.84411,-14.61029 h 2.92205 z" />
  <path d="m 89.169788,3.2e-4 v 9.90646 q 0.962139,-1.28285 2.351895,-2.1737 1.389756,-0.89093 3.171497,-0.89093 1.781732,0 3.064584,0.49929 1.282851,0.49856 2.244986,1.49663 2.20936,2.17371 2.20936,5.73719 V 24.945 H 99.539498 V 14.64655 q 0,-2.45878 -1.38975,-3.91984 -1.389759,-1.46099 -3.59911,-1.46099 -2.24499,0 -3.81292,1.49663 -1.56793,1.53228 -1.56793,3.91984 V 24.945 H 86.497181 V 6.9e-4 Z" />
  <path d="M 76.763598,24.944 V 0.74797 h 2.672607 v 6.37861 h 4.097998 V 9.4785 H 79.436205 V 24.944 Z" />
  <path d="m 64.652036,22.80587 c 1.199704,0 2.230142,-0.24964 3.091316,-0.74835 0.861173,-0.49857 1.553082,-1.24721 2.075725,-2.24499 h 2.922051 c -0.617667,1.61539 -1.603565,2.92205 -2.957686,3.91984 -1.330364,0.99778 -3.052711,1.49663 -5.16704,1.49663 -2.684485,0 -4.870084,-0.89085 -6.556796,-2.67263 -1.639199,-1.73423 -2.458799,-3.90793 -2.458799,-6.52111 0,-2.63699 0.783965,-4.8107 2.351894,-6.52119 1.662956,-1.78178 3.824798,-2.67263 6.485527,-2.67263 2.660729,0 4.822571,0.89085 6.485527,2.67263 1.567929,1.71049 2.351894,3.8842 2.351894,6.52119 v 1.06899 H 58.344684 c 0.190054,1.63921 0.843356,2.99335 1.959912,4.06241 1.140312,1.09281 2.589458,1.63921 4.34744,1.63921 z M 64.43823,9.26464 c -1.639199,0 -3.017076,0.51084 -4.133632,1.53228 -1.045287,0.97398 -1.686712,2.24499 -1.924277,3.81292 H 70.49614 C 70.258574,13.04191 69.617148,11.7709 68.571863,10.79692 67.455306,9.7754 66.077429,9.26464 64.43823,9.26464 Z" />
  <path d="m 28.476073,9.83557 q 1.781738,-2.99335 5.416484,-2.99335 1.781738,0 3.278398,0.96214 1.532295,0.9265 2.387529,2.63699 1.211582,-2.24499 3.777285,-3.20713 1.033408,-0.39178 2.316259,-0.39178 1.318487,0 2.494434,0.53464 1.211582,0.49857 2.138086,1.46099 1.995547,2.13806 1.995547,5.34519 V 24.945 H 49.607487 V 14.25455 q 0,-2.20935 -1.247216,-3.6347 -1.247217,-1.35414 -3.171494,-1.35414 -2.031182,0 -3.385303,1.3185 -1.42539,1.35406 -1.42539,3.70598 V 24.945 H 37.705477 V 14.25455 q 0,-2.20935 -1.247217,-3.6347 -1.247217,-1.35414 -3.171494,-1.35414 -2.031181,0 -3.385303,1.3185 -1.42539,1.35406 -1.42539,3.70598 V 24.945 H 25.803466 V 7.12758 h 2.672607 z" />
  <path d="M 23.376405,24.944 H 20.41872 L 16.958639,16.72957 H 6.4231365 L 2.9576858,24.944 H 4.409953e-7 L 10.013369,1.35375 h 3.349668 z M 15.925231,14.27079 11.688203,4.13331 7.4565448,14.27079 Z" />
</svg>
